<svg xmlns="http://www.w3.org/2000/svg" width="36" height="35" viewBox="0 0 36 35" fill="none">
<path d="M17.6363 0.32212C18.0414 -0.107373 18.7359 -0.107374 19.141 0.32212L21.28 2.58976C21.5669 2.89388 22.016 2.99396 22.4096 2.84149L25.3444 1.70454C25.9003 1.48921 26.526 1.7834 26.7001 2.34198L27.6196 5.2912C27.7429 5.68671 28.103 5.96715 28.5254 5.99651L31.6749 6.21545C32.2714 6.25692 32.7044 6.78704 32.613 7.36408L32.1308 10.4107C32.0662 10.8193 32.266 11.2246 32.6335 11.4299L35.3738 12.9614C35.8928 13.2515 36.0473 13.9125 35.7086 14.3937L33.9203 16.9344C33.6805 17.2751 33.6805 17.7249 33.9203 18.0656L35.7086 20.6063C36.0473 21.0875 35.8928 21.7485 35.3738 22.0386L32.6335 23.5701C32.266 23.7754 32.0662 24.1807 32.1308 24.5893L32.613 27.6359C32.7044 28.213 32.2714 28.7431 31.6749 28.7845L28.5254 29.0035C28.103 29.0329 27.7429 29.3133 27.6196 29.7088L26.7001 32.658C26.526 33.2166 25.9003 33.5108 25.3444 33.2955L22.4096 32.1585C22.016 32.006 21.5669 32.1061 21.28 32.4102L19.141 34.6779C18.7359 35.1074 18.0414 35.1074 17.6363 34.6779L15.4973 32.4102C15.2105 32.1061 14.7614 32.006 14.3678 32.1585L11.4329 33.2955C10.8771 33.5108 10.2514 33.2166 10.0772 32.658L9.15779 29.7088C9.03448 29.3133 8.67431 29.0329 8.25194 29.0035L5.10249 28.7845C4.50598 28.7431 4.07299 28.213 4.16431 27.6359L4.64652 24.5893C4.71118 24.1807 4.51131 23.7754 4.14381 23.5701L1.40354 22.0386C0.884537 21.7485 0.730003 21.0875 1.06871 20.6063L2.85705 18.0656C3.09688 17.7249 3.09688 17.2751 2.85705 16.9344L1.06871 14.3937C0.730003 13.9125 0.884536 13.2515 1.40354 12.9614L4.14381 11.4299C4.5113 11.2246 4.71118 10.8193 4.64652 10.4107L4.16431 7.36408C4.07299 6.78705 4.50598 6.25692 5.10249 6.21545L8.25194 5.99651C8.67431 5.96715 9.03448 5.68671 9.15779 5.2912L10.0772 2.34199C10.2514 1.7834 10.8771 1.48921 11.4329 1.70454L14.3678 2.84149C14.7614 2.99396 15.2105 2.89388 15.4973 2.58977L17.6363 0.32212Z" fill="#e0fb52"/>
</svg>